<?xml version="1.0" encoding="UTF-8" standalone="no"?>
<!-- Created with Inkscape (http://www.inkscape.org/) -->

<svg
   xmlns:dc="http://purl.org/dc/elements/1.1/"
   xmlns:cc="http://creativecommons.org/ns#"
   xmlns:rdf="http://www.w3.org/1999/02/22-rdf-syntax-ns#"
   xmlns:svg="http://www.w3.org/2000/svg"
   xmlns="http://www.w3.org/2000/svg"
   xmlns:sodipodi="http://sodipodi.sourceforge.net/DTD/sodipodi-0.dtd"
   xmlns:inkscape="http://www.inkscape.org/namespaces/inkscape"
   width="300"
   height="200"
   viewBox="0 0 300 200"
   version="1.1"
   id="svg8"
   inkscape:version="0.92.3 (2405546, 2018-03-11)"
   sodipodi:docname="win.svg">
  <defs
     id="defs2" />
  <sodipodi:namedview
     id="base"
     pagecolor="#1d1d1d"
     bordercolor="#666666"
     borderopacity="1.0"
     inkscape:pageopacity="0"
     inkscape:pageshadow="2"
     inkscape:zoom="4.646703"
     inkscape:cx="147.39983"
     inkscape:cy="98.112103"
     inkscape:document-units="px"
     inkscape:current-layer="layer1"
     showgrid="true"
     units="px"
     inkscape:window-width="2493"
     inkscape:window-height="1376"
     inkscape:window-x="67"
     inkscape:window-y="27"
     inkscape:window-maximized="1"
     inkscape:pagecheckerboard="false"
     inkscape:snap-global="true">
    <inkscape:grid
       type="xygrid"
       id="grid815"
       spacingx="0.625"
       spacingy="0.625"
       empspacing="20" />
  </sodipodi:namedview>
  <metadata
     id="metadata5">
    <rdf:RDF>
      <cc:Work
         rdf:about="">
        <dc:format>image/svg+xml</dc:format>
        <dc:type
           rdf:resource="http://purl.org/dc/dcmitype/StillImage" />
        <dc:title></dc:title>
      </cc:Work>
    </rdf:RDF>
  </metadata>
  <g
     inkscape:label="Layer 1"
     inkscape:groupmode="layer"
     id="layer1">
    <path
       style="fill:#b08300;fill-opacity:1;stroke:#ffffff;stroke-opacity:1"
       d="m 150,52.5 a 37.5,15 0 0 0 -37.5,15 v 0.20117 A 17.5,17.5 0 0 0 97.5,85 a 17.5,17.5 0 0 0 17.5,17.5 17.5,17.5 0 0 0 5.9668,-1.07227 37.5,30 0 0 0 25.43164,10.90625 A 27.5,32.5 0 0 1 132.5,138.26953 V 147.5 h 35 v -9.20703 A 27.5,32.5 0 0 1 153.5918,112.35547 37.5,30 0 0 0 179.05273,101.44141 17.5,17.5 0 0 0 185,102.5 17.5,17.5 0 0 0 202.5,85 17.5,17.5 0 0 0 187.5,67.69531 V 67.5 A 37.5,15 0 0 0 150,52.5 Z m 37.5,20.25391 A 12.5,12.5 0 0 1 197.5,85 12.5,12.5 0 0 1 185,97.5 12.5,12.5 0 0 1 182.58984,97.26172 37.5,30 0 0 0 187.5,82.5 Z m -75,0.0117 v 9.73438 A 37.5,30 0 0 0 117.39844,97.2578 12.5,12.5 0 0 1 115,97.49999 a 12.5,12.5 0 0 1 -12.5,-12.5 12.5,12.5 0 0 1 10,-12.23438 z"
       id="path1012"
       inkscape:connector-curvature="0" />
  </g>
</svg>
